<svg aria-hidden="true" style="position: absolute; width: 0; height: 0; overflow: hidden;" version="1.1" xmlns="http://www.w3.org/2000/svg" xmlns:xlink="http://www.w3.org/1999/xlink">
<defs>
<symbol id="icon-search" viewBox="0 0 32 32">
<path d="M29.092 31.514l-6.85-6.862c-1.077 0.935-2.334 1.663-3.77 2.185s-2.962 0.782-4.578 0.782c-3.877 0-7.163-1.349-9.855-4.046s-4.039-5.952-4.039-9.764c0-3.812 1.346-7.067 4.039-9.764s5.96-4.046 9.801-4.046c3.806 0 7.046 1.349 9.721 4.046s4.012 5.952 4.012 9.764c0 1.546-0.251 3.039-0.754 4.477s-1.257 2.787-2.262 4.046l6.958 6.862c0.323 0.288 0.485 0.656 0.485 1.106s-0.18 0.854-0.539 1.214c-0.323 0.324-0.718 0.486-1.185 0.486s-0.862-0.162-1.185-0.486zM13.84 24.383c2.908 0 5.385-1.034 7.432-3.102s3.070-4.558 3.070-7.471-1.023-5.403-3.070-7.471c-2.046-2.068-4.524-3.102-7.432-3.102-2.944 0-5.448 1.034-7.513 3.102s-3.097 4.558-3.097 7.471c0 2.913 1.032 5.403 3.097 7.471s4.569 3.102 7.513 3.102z"></path>
</symbol>
<symbol id="icon-star" viewBox="0 0 32 32">
<path d="M7.217 20.549c4.848-1.499 10.151 0.123 13.332 4.076-1.499-4.848 0.123-10.151 4.076-13.332-4.848 1.499-10.151-0.123-13.332-4.076 1.499 4.848-0.123 10.151-4.076 13.332zM5.426 21.259c5.446-3.151 7.532-9.974 4.779-15.632l0.377-0.201c3.151 5.446 9.974 7.532 15.632 4.779l0.201 0.377c-5.446 3.151-7.532 9.974-4.779 15.632l-0.377 0.201c-3.151-5.446-9.974-7.532-15.632-4.779l-0.201-0.378z"></path>
<path d="M21.015 22.537c0.291 1.034 0.442 1.884 0.45 2.499 0.004 0.309-0.028 0.535-0.080 0.688-0.051 0.151-0.109 0.197-0.139 0.213s-0.101 0.038-0.254-0.004c-0.156-0.043-0.361-0.143-0.615-0.319-0.506-0.351-1.126-0.951-1.82-1.771-1.384-1.634-3.002-4.071-4.519-6.922s-2.631-5.556-3.212-7.617c-0.291-1.034-0.442-1.884-0.45-2.499-0.004-0.309 0.028-0.535 0.079-0.688 0.051-0.151 0.109-0.197 0.139-0.213s0.101-0.038 0.254 0.004c0.156 0.043 0.361 0.143 0.615 0.319 0.506 0.351 1.126 0.951 1.82 1.771 1.384 1.634 3.002 4.071 4.519 6.922s2.631 5.556 3.212 7.617zM21.447 26.315c1.248-0.664-0.215-5.855-3.267-11.595s-6.538-9.856-7.786-9.193 0.215 5.855 3.267 11.595c3.052 5.74 6.538 9.856 7.786 9.193z"></path>
<path d="M9.305 21.015c-1.034 0.291-1.884 0.442-2.499 0.45-0.309 0.004-0.535-0.028-0.688-0.080-0.151-0.051-0.197-0.109-0.213-0.139s-0.038-0.101 0.004-0.254c0.043-0.156 0.143-0.361 0.319-0.615 0.351-0.506 0.951-1.126 1.771-1.82 1.634-1.384 4.071-3.002 6.922-4.518s5.556-2.631 7.617-3.212c1.034-0.291 1.884-0.442 2.499-0.45 0.309-0.004 0.535 0.028 0.688 0.079 0.151 0.051 0.197 0.109 0.213 0.139s0.038 0.101-0.004 0.254c-0.043 0.156-0.143 0.361-0.319 0.615-0.352 0.506-0.951 1.126-1.771 1.82-1.634 1.384-4.071 3.002-6.922 4.518s-5.556 2.631-7.617 3.212zM5.527 21.447c0.664 1.248 5.855-0.215 11.596-3.267s9.856-6.538 9.193-7.786-5.855 0.215-11.595 3.267c-5.74 3.052-9.856 6.538-9.193 7.786z"></path>
</symbol>
<symbol id="icon-search1" viewBox="0 0 32 32">
<path d="M31.008 27.231l-7.58-6.447c-0.784-0.705-1.622-1.029-2.299-0.998 1.789-2.096 2.87-4.815 2.87-7.787 0-6.627-5.373-12-12-12s-12 5.373-12 12 5.373 12 12 12c2.972 0 5.691-1.081 7.787-2.87-0.031 0.677 0.293 1.515 0.998 2.299l6.447 7.58c1.104 1.226 2.907 1.33 4.007 0.23s0.997-2.903-0.23-4.007zM12 20c-4.418 0-8-3.582-8-8s3.582-8 8-8 8 3.582 8 8-3.582 8-8 8z"></path>
</symbol>
</defs>
</svg>
