<svg aria-hidden="true" style="position: absolute; width: 0; height: 0; overflow: hidden;" version="1.1" xmlns="http://www.w3.org/2000/svg" xmlns:xlink="http://www.w3.org/1999/xlink">
<defs>
<symbol id="icon-search" viewBox="0 0 32 32">
<path d="M29.092 31.514l-6.85-6.862c-1.077 0.935-2.334 1.663-3.77 2.185s-2.962 0.782-4.578 0.782c-3.877 0-7.163-1.349-9.855-4.046s-4.039-5.952-4.039-9.764c0-3.812 1.346-7.067 4.039-9.764s5.96-4.046 9.801-4.046c3.806 0 7.046 1.349 9.721 4.046s4.012 5.952 4.012 9.764c0 1.546-0.251 3.039-0.754 4.477s-1.257 2.787-2.262 4.046l6.958 6.862c0.323 0.288 0.485 0.656 0.485 1.106s-0.18 0.854-0.539 1.214c-0.323 0.324-0.718 0.486-1.185 0.486s-0.862-0.162-1.185-0.486zM13.84 24.383c2.908 0 5.385-1.034 7.432-3.102s3.070-4.558 3.070-7.471-1.023-5.403-3.070-7.471c-2.046-2.068-4.524-3.102-7.432-3.102-2.944 0-5.448 1.034-7.513 3.102s-3.097 4.558-3.097 7.471c0 2.913 1.032 5.403 3.097 7.471s4.569 3.102 7.513 3.102z"></path>
</symbol>
<symbol id="icon-star" viewBox="0 0 32 32">
<path d="M2.763 22.99c7.355-2.274 15.401 0.186 20.227 6.184-2.274-7.355 0.186-15.401 6.184-20.227-7.355 2.274-15.401-0.186-20.227-6.184 2.274 7.355-0.186 15.401-6.184 20.227zM0.047 24.067c8.262-4.781 11.427-15.133 7.251-23.716l0.573-0.304c4.781 8.262 15.133 11.427 23.716 7.251l0.305 0.573c-8.262 4.781-11.427 15.133-7.251 23.716l-0.573 0.305c-4.781-8.262-15.133-11.427-23.716-7.251l-0.304-0.573z"></path>
<path d="M23.697 26.007c0.442 1.569 0.67 2.858 0.683 3.792 0.006 0.468-0.042 0.811-0.121 1.044-0.077 0.228-0.165 0.299-0.211 0.323s-0.153 0.057-0.386-0.006c-0.237-0.065-0.548-0.216-0.933-0.484-0.767-0.533-1.708-1.443-2.762-2.687-2.1-2.479-4.555-6.176-6.855-10.502s-3.992-8.429-4.873-11.556c-0.442-1.569-0.67-2.858-0.683-3.792-0.006-0.468 0.042-0.811 0.121-1.044 0.077-0.228 0.165-0.299 0.211-0.323s0.153-0.057 0.386 0.006c0.237 0.065 0.548 0.216 0.933 0.484 0.767 0.533 1.708 1.443 2.762 2.687 2.1 2.479 4.555 6.176 6.855 10.502s3.992 8.429 4.873 11.556zM24.354 31.739c1.893-1.007-0.326-8.883-4.957-17.593s-9.92-14.954-11.813-13.947 0.326 8.883 4.957 17.593c4.631 8.709 9.92 14.954 11.813 13.947z"></path>
<path d="M5.931 23.697c-1.569 0.442-2.858 0.67-3.792 0.683-0.468 0.006-0.811-0.042-1.044-0.121-0.228-0.077-0.299-0.165-0.323-0.211s-0.057-0.153 0.006-0.386c0.065-0.237 0.216-0.548 0.484-0.933 0.533-0.767 1.443-1.708 2.687-2.762 2.479-2.1 6.176-4.555 10.502-6.855s8.429-3.992 11.556-4.873c1.569-0.442 2.858-0.67 3.792-0.683 0.468-0.006 0.811 0.042 1.044 0.121 0.228 0.077 0.299 0.165 0.323 0.211s0.057 0.153-0.006 0.386c-0.065 0.237-0.216 0.548-0.484 0.933-0.533 0.767-1.443 1.708-2.687 2.762-2.479 2.1-6.176 4.555-10.502 6.855s-8.429 3.992-11.556 4.873zM0.199 24.354c1.007 1.893 8.883-0.326 17.593-4.957s14.954-9.92 13.947-11.813c-1.007-1.893-8.883 0.326-17.593 4.957s-14.954 9.92-13.947 11.813z"></path>
</symbol>
</defs>
</svg>
